<svg xmlns="http://www.w3.org/2000/svg" width="82.338" height="24" viewBox="0 0 82.338 24">
  <g id="Group_19" data-name="Group 19" transform="translate(-641.831 -295)">
    <g id="Path_10" data-name="Path 10" transform="translate(641.831 295)" fill="#1e2021">
      <path d="M 69.10491943359375 23.5 L 13.23285102844238 23.5 C 9.822650909423828 23.5 6.618873119354248 22.29781150817871 4.211695194244385 20.11490058898926 C 1.818173170089722 17.94437789916992 0.5000064969062805 15.06244468688965 0.5000064969062805 12 C 0.5000064969062805 8.937555313110352 1.818173170089722 6.055622100830078 4.211695194244385 3.8850998878479 C 6.618873119354248 1.702188849449158 9.822650909423828 0.5 13.23285102844238 0.5 L 69.10491943359375 0.5 C 72.51511383056641 0.5 75.71889495849609 1.702188849449158 78.12608337402344 3.8850998878479 C 80.51960754394531 6.055633544921875 81.83777618408203 8.937555313110352 81.83777618408203 12 C 81.83777618408203 15.06244468688965 80.51960754394531 17.94436645507812 78.12608337402344 20.11490058898926 C 75.71889495849609 22.29781150817871 72.51511383056641 23.5 69.10491943359375 23.5 Z" stroke="none" />
      <path d="M 13.23284912109375 1 C 6.487625122070312 1 0.9999923706054688 5.934577941894531 0.9999923706054688 12 C 0.9999923706054688 18.06542205810547 6.487625122070312 23 13.23284912109375 23 L 69.10490417480469 23 C 75.85012817382812 23 81.33776092529297 18.06542205810547 81.33776092529297 12 C 81.33776092529297 5.934577941894531 75.85012817382812 1 69.10490417480469 1 L 13.23284912109375 1 M 13.23284912109375 0 L 69.10490417480469 0 C 76.41321563720703 0 82.33776092529297 5.372577667236328 82.33776092529297 12 C 82.33776092529297 18.62742233276367 76.41321563720703 24 69.10490417480469 24 L 13.23284912109375 24 C 5.924552917480469 24 -7.62939453125e-06 18.62742233276367 -7.62939453125e-06 12 C -7.62939453125e-06 5.372577667236328 5.924552917480469 0 13.23284912109375 0 Z" stroke="none" fill="#01548a" />
    </g>
    <text id="Coach" transform="translate(666.831 311)" fill="#01548a" font-size="10" font-family="Tahoma-Bold, Tahoma" font-weight="700" letter-spacing="0.058em">
      <tspan x="0" y="0">Coach</tspan>
    </text>
  </g>
</svg>
