<svg xmlns="http://www.w3.org/2000/svg" width="42.063" height="42.835" viewBox="0 0 42.063 42.835">
  <g id="layer1" transform="translate(-141.41 -381.856)">
    <path id="path2996" d="M158.867,424.4a21.329,21.329,0,0,1-12.056-6.255,21.961,21.961,0,0,1-5.009-9.96,24.712,24.712,0,0,1,3.2-16.9c5.635-9.041,17.725-12.045,28.027-6.963,8.334,4.111,12.143,12.478,9.721,21.354a22.514,22.514,0,0,1-2.452,5.757,13.593,13.593,0,0,1-3.815,2.978,6.659,6.659,0,0,1-5.533-.008,7.113,7.113,0,0,1-3.346-2.752c-.194-.408-.418-.741-.5-.74a3.814,3.814,0,0,0-.88.695,11.964,11.964,0,0,1-9.112,2.892,7.68,7.68,0,0,1-6.788-6.564c-.538-3.365,1.055-8.262,3.848-11.831,3.3-4.213,7.871-6.084,12.15-4.969,5.067,1.32,6.624,5.137,5.122,12.554-.616,3.042-.657,5.026-.119,5.847a3.361,3.361,0,0,0,2.794,1.244,5.53,5.53,0,0,0,3.3-2.8,17.583,17.583,0,0,0,1.492-10.682c-1.495-5.953-7.143-10.325-14.353-11.109-5.986-.651-11.784,1.67-15.054,6.028a20.269,20.269,0,0,0-3.8,13.567,15.752,15.752,0,0,0,4.7,9.86,11.542,11.542,0,0,0,3.885,2.881,16.07,16.07,0,0,0,8.374,1.875,17.036,17.036,0,0,0,5.024-.471,25.091,25.091,0,0,0,9.081-4.134,7.314,7.314,0,0,1,2.136-1.114,2.191,2.191,0,0,1,1.883,1.077c.721,1.394.2,2.31-2.241,3.943a28,28,0,0,1-19.685,4.705Zm1.974-14.468a13.392,13.392,0,0,0,4.715-3.512,4.636,4.636,0,0,0,1.6-2.823c1.241-5.455.853-7.488-1.58-8.3a5.881,5.881,0,0,0-4.642.5c-5.2,2.558-8.487,11.867-4.93,13.945C157.333,410.522,158.807,410.579,160.841,409.932Z" transform="translate(0 0)" fill="#D2D3D7"/>
  </g>
</svg>
