<svg xmlns="http://www.w3.org/2000/svg" width="41.261" height="34.761" viewBox="0 0 41.261 34.761">
  <g id="eye_icon-icons.com_64930" transform="translate(0 -54.349)">
    <path id="Path_31" data-name="Path 31" d="M20.63,86.988c8.293,0,16.131-11.4,18.543-15.259C36.761,67.874,28.923,56.47,20.63,56.47S4.5,67.874,2.088,71.729C4.5,75.584,12.337,86.988,20.63,86.988m0,2.122C10.04,89.11.451,72.536,0,71.746v-.032c.451-.791,10.04-17.365,20.63-17.365S40.81,70.923,41.261,71.714v.032c-.451.791-10.04,17.365-20.631,17.365Zm0-6.359c4.758,0,8.628-4.945,8.628-11.022s-3.87-11.023-8.628-11.023S12,65.653,12,71.73s3.87,11.022,8.627,11.022m0,2.123c-5.682,0-10.289-5.885-10.289-13.144S14.948,58.585,20.63,58.585,30.919,64.47,30.919,71.73,26.312,84.874,20.63,84.874Zm0-7.647c-2.377,0-4.3-2.462-4.3-5.5s1.927-5.5,4.3-5.5,4.3,2.461,4.3,5.5S23.007,77.227,20.63,77.227Z" transform="translate(0 0)" fill="#7b7a7d"/>
  </g>
</svg>
