<svg xmlns="http://www.w3.org/2000/svg" width="45" height="46" viewBox="0 0 45 46">
  <g id="Group_206" data-name="Group 206" transform="translate(-114 -12)">
    <rect id="Rectangle_451" data-name="Rectangle 451" width="45" height="46" rx="14" transform="translate(114 12)" fill="#26282a" />
    <path id="person-svgrepo-com" d="M13.2,2.5A6.231,6.231,0,0,0,9.688,13.883,10.2,10.2,0,0,0,3,23.15a.85.85,0,0,0,1.7.051,8.5,8.5,0,0,1,16.986,0,.85.85,0,1,0,1.7-.05A10.2,10.2,0,0,0,16.7,13.883,6.231,6.231,0,0,0,13.2,2.5ZM8.664,8.731A4.532,4.532,0,1,1,13.2,13.263,4.532,4.532,0,0,1,8.664,8.731Z" transform="translate(123.304 20.5)" fill="#fefefe" fill-rule="evenodd" />
  </g>
</svg>
