<svg xmlns="http://www.w3.org/2000/svg" xmlns:xlink="http://www.w3.org/1999/xlink" width="30" height="30" viewBox="0 0 30 30">
  <defs>
    <clipPath id="clip-path">
      <rect width="30" height="30" fill="none"/>
    </clipPath>
  </defs>
  <g id="Icons_Search" data-name="Icons / Search" clip-path="url(#clip-path)">
    <rect id="Rectangle_430" data-name="Rectangle 430" width="30" height="30" fill="none" opacity="0.2"/>
    <path id="Path_6" data-name="Path 6" d="M29.7,27.052l-5.864-5.864a12.952,12.952,0,0,0,2.648-7.945A13.161,13.161,0,0,0,13.242,0,13.161,13.161,0,0,0,0,13.242,13.161,13.161,0,0,0,13.242,26.484a12.952,12.952,0,0,0,7.945-2.648L27.052,29.7ZM3.783,13.242a9.367,9.367,0,0,1,9.459-9.459A9.367,9.367,0,0,1,22.7,13.242,9.367,9.367,0,0,1,13.242,22.7,9.367,9.367,0,0,1,3.783,13.242Z" fill="#d2d3d7"/>
  </g>
</svg>
